<svg xmlns="http://www.w3.org/2000/svg" viewBox="0 0 1200 780" font-family="Segoe UI, Arial, sans-serif">
  <defs>
    <linearGradient id="hdrG" x1="0" y1="0" x2="1" y2="0">
      <stop offset="0%" stop-color="#D42027"/><stop offset="100%" stop-color="#A0181D"/>
    </linearGradient>
    <filter id="sh" x="-1%" y="-1%" width="102%" height="106%">
      <feDropShadow dx="0" dy="1" stdDeviation="2" flood-opacity="0.12"/>
    </filter>
  </defs>

  <rect width="1200" height="780" fill="#F8F9FA" rx="12"/>
  <rect x="0" y="0" width="1200" height="50" fill="url(#hdrG)" rx="12"/>
  <rect x="0" y="25" width="1200" height="25" fill="url(#hdrG)"/>
  <text x="600" y="33" text-anchor="middle" fill="white" font-size="18" font-weight="700">Data Model — Fact Constellation Schema (20+ Entities)</text>

  <!-- Legend -->
  <rect x="40" y="62" width="14" height="14" rx="3" fill="#0078D4"/>
  <text x="60" y="74" font-size="11" fill="#333">Core / Fact Table</text>
  <rect x="190" y="62" width="14" height="14" rx="3" fill="#2D8B4E"/>
  <text x="210" y="74" font-size="11" fill="#333">Dimension / Catalog</text>
  <rect x="370" y="62" width="14" height="14" rx="3" fill="#D4820E"/>
  <text x="390" y="74" font-size="11" fill="#333">Bridge Table (M:N)</text>
  <rect x="540" y="62" width="14" height="14" rx="3" fill="#742774"/>
  <text x="560" y="74" font-size="11" fill="#333">Transactional Detail</text>
  <rect x="720" y="62" width="14" height="14" rx="3" fill="#555"/>
  <text x="740" y="74" font-size="11" fill="#333">Supporting / Geo</text>

  <!-- ===================== CORE TABLES ===================== -->
  <!-- Registro Caso (Central) -->
  <rect x="420" y="260" width="200" height="175" rx="8" fill="white" stroke="#0078D4" stroke-width="2.5" filter="url(#sh)"/>
  <rect x="420" y="260" width="200" height="30" rx="8" fill="#0078D4"/>
  <rect x="420" y="278" width="200" height="12" fill="#0078D4"/>
  <text x="520" y="281" text-anchor="middle" fill="white" font-size="12" font-weight="700">Registro Caso</text>
  <text x="430" y="306" font-size="9.5" fill="#333">🔑 id_caso (PK)</text>
  <text x="430" y="320" font-size="9.5" fill="#333">tic</text>
  <text x="430" y="334" font-size="9.5" fill="#333">Nombre completo</text>
  <text x="430" y="348" font-size="9.5" fill="#333">Estatus del CasoV2</text>
  <text x="430" y="362" font-size="9.5" fill="#333">Tipo Registro</text>
  <text x="430" y="376" font-size="9.5" fill="#333">Fecha de Registro</text>
  <text x="430" y="390" font-size="9.5" fill="#666">🔗 id_oficina (FK)</text>
  <text x="430" y="404" font-size="9.5" fill="#666">🔗 Gestor del Caso (FK)</text>
  <text x="430" y="422" font-size="8" fill="#0078D4" font-weight="600">PRIMARY FACT TABLE</text>

  <!-- Registro Beneficiario -->
  <rect x="100" y="170" width="195" height="155" rx="8" fill="white" stroke="#0078D4" stroke-width="2.5" filter="url(#sh)"/>
  <rect x="100" y="170" width="195" height="30" rx="8" fill="#0078D4"/>
  <rect x="100" y="188" width="195" height="12" fill="#0078D4"/>
  <text x="197" y="191" text-anchor="middle" fill="white" font-size="12" font-weight="700">Registro Beneficiario</text>
  <text x="110" y="216" font-size="9.5" fill="#333">🔑 Id_beneficiario (PK)</text>
  <text x="110" y="230" font-size="9.5" fill="#333">Sexo / Género / LGBTIQ</text>
  <text x="110" y="244" font-size="9.5" fill="#333">País de Origen</text>
  <text x="110" y="258" font-size="9.5" fill="#333">Fecha Nacimiento / Edad</text>
  <text x="110" y="272" font-size="9.5" fill="#333">Lengua Materna</text>
  <text x="110" y="286" font-size="9.5" fill="#333">Estado Civil / Etnicidad</text>
  <text x="110" y="300" font-size="9.5" fill="#666">🔗 id_caso (FK)</text>
  <text x="110" y="315" font-size="8" fill="#0078D4" font-weight="600">CORE DIMENSION</text>

  <!-- Relationship line: Beneficiario → Caso -->
  <line x1="295" y1="285" x2="420" y2="310" stroke="#0078D4" stroke-width="1.5" stroke-dasharray="6,3"/>
  <text x="348" y="290" font-size="8" fill="#0078D4" font-weight="600">1:N</text>

  <!-- ===================== TRANSACTIONAL DETAIL ===================== -->
  <!-- Necesidades Beneficiario -->
  <rect x="700" y="100" width="185" height="130" rx="8" fill="white" stroke="#742774" stroke-width="2" filter="url(#sh)"/>
  <rect x="700" y="100" width="185" height="28" rx="8" fill="#742774"/>
  <rect x="700" y="116" width="185" height="12" fill="#742774"/>
  <text x="792" y="119" text-anchor="middle" fill="white" font-size="11" font-weight="700">Necesidades Benefic.</text>
  <text x="710" y="143" font-size="9" fill="#333">🔑 id_necesidad (PK)</text>
  <text x="710" y="156" font-size="9" fill="#333">Eje de Atención</text>
  <text x="710" y="169" font-size="9" fill="#333">Tipo de Respuesta</text>
  <text x="710" y="182" font-size="9" fill="#333">Requiere Canalización</text>
  <text x="710" y="195" font-size="9" fill="#666">🔗 id_caso (FK)</text>
  <text x="710" y="222" font-size="8" fill="#742774" font-weight="600">N:1 → Caso</text>

  <!-- Riesgos Beneficiario -->
  <rect x="940" y="100" width="185" height="130" rx="8" fill="white" stroke="#742774" stroke-width="2" filter="url(#sh)"/>
  <rect x="940" y="100" width="185" height="28" rx="8" fill="#742774"/>
  <rect x="940" y="116" width="185" height="12" fill="#742774"/>
  <text x="1032" y="119" text-anchor="middle" fill="white" font-size="11" font-weight="700">Riesgos Beneficiario</text>
  <text x="950" y="143" font-size="9" fill="#333">🔑 id_riesgo (PK)</text>
  <text x="950" y="156" font-size="9" fill="#333">Nivel de Riesgo</text>
  <text x="950" y="169" font-size="9" fill="#333">Estatus del Riesgo</text>
  <text x="950" y="182" font-size="9" fill="#666">🔗 id_caso (FK)</text>
  <text x="950" y="195" font-size="9" fill="#666">🔗 id_entrevista (FK)</text>
  <text x="950" y="222" font-size="8" fill="#742774" font-weight="600">N:1 → Caso</text>

  <!-- Canalizaciones -->
  <rect x="700" y="285" width="185" height="140" rx="8" fill="white" stroke="#742774" stroke-width="2" filter="url(#sh)"/>
  <rect x="700" y="285" width="185" height="28" rx="8" fill="#742774"/>
  <rect x="700" y="301" width="185" height="12" fill="#742774"/>
  <text x="792" y="304" text-anchor="middle" fill="white" font-size="11" font-weight="700">Canalizaciones</text>
  <text x="710" y="328" font-size="9" fill="#333">🔑 id_canalizacion (PK)</text>
  <text x="710" y="341" font-size="9" fill="#333">Fecha de Canalización</text>
  <text x="710" y="354" font-size="9" fill="#333">Nivel de Prioridad</text>
  <text x="710" y="367" font-size="9" fill="#333">Código QR Documento</text>
  <text x="710" y="380" font-size="9" fill="#666">🔗 id_caso (FK)</text>
  <text x="710" y="393" font-size="9" fill="#666">🔗 id_organizacion (FK)</text>
  <text x="710" y="406" font-size="9" fill="#666">🔗 id_punto_focal (FK)</text>
  <text x="710" y="420" font-size="8" fill="#742774" font-weight="600">N:1 → Caso, Org, PF</text>

  <!-- Seguimientos -->
  <rect x="700" y="470" width="185" height="120" rx="8" fill="white" stroke="#742774" stroke-width="2" filter="url(#sh)"/>
  <rect x="700" y="470" width="185" height="28" rx="8" fill="#742774"/>
  <rect x="700" y="486" width="185" height="12" fill="#742774"/>
  <text x="792" y="489" text-anchor="middle" fill="white" font-size="11" font-weight="700">Seguimientos</text>
  <text x="710" y="513" font-size="9" fill="#333">🔑 id_seguimiento (PK)</text>
  <text x="710" y="526" font-size="9" fill="#333">Tipo de Seguimiento</text>
  <text x="710" y="539" font-size="9" fill="#333">Resultado Canalización</text>
  <text x="710" y="552" font-size="9" fill="#666">🔗 id_caso (FK)</text>
  <text x="710" y="565" font-size="9" fill="#666">🔗 id_necesidad (FK)</text>
  <text x="710" y="582" font-size="8" fill="#742774" font-weight="600">N:1 → Caso, Necesidad</text>

  <!-- Estatus Legal -->
  <rect x="420" y="470" width="185" height="110" rx="8" fill="white" stroke="#742774" stroke-width="2" filter="url(#sh)"/>
  <rect x="420" y="470" width="185" height="28" rx="8" fill="#742774"/>
  <rect x="420" y="486" width="185" height="12" fill="#742774"/>
  <text x="512" y="489" text-anchor="middle" fill="white" font-size="11" font-weight="700">Estatus Legal</text>
  <text x="430" y="513" font-size="9" fill="#333">🔑 id_estatusLegal (PK)</text>
  <text x="430" y="526" font-size="9" fill="#333">Estado Legal / Protección</text>
  <text x="430" y="539" font-size="9" fill="#333">Tipo Violencia / PII</text>
  <text x="430" y="552" font-size="9" fill="#666">🔗 id_caso (FK)</text>
  <text x="430" y="572" font-size="8" fill="#742774" font-weight="600">N:1 → Caso</text>

  <!-- Entrevista Beneficiario -->
  <rect x="940" y="285" width="185" height="110" rx="8" fill="white" stroke="#742774" stroke-width="2" filter="url(#sh)"/>
  <rect x="940" y="285" width="185" height="28" rx="8" fill="#742774"/>
  <rect x="940" y="301" width="185" height="12" fill="#742774"/>
  <text x="1032" y="304" text-anchor="middle" fill="white" font-size="11" font-weight="700">Entrevista Benefic.</text>
  <text x="950" y="328" font-size="9" fill="#333">🔑 id_entrevista (PK)</text>
  <text x="950" y="341" font-size="9" fill="#333">Tipo Detalle Evaluación</text>
  <text x="950" y="354" font-size="9" fill="#333">Detalles</text>
  <text x="950" y="367" font-size="9" fill="#666">🔗 id_caso (FK)</text>
  <text x="950" y="387" font-size="8" fill="#742774" font-weight="600">N:1 → Caso</text>

  <!-- ===================== BRIDGE TABLES ===================== -->
  <!-- Relación RB-NB -->
  <rect x="940" y="450" width="185" height="90" rx="8" fill="white" stroke="#D4820E" stroke-width="2.5" filter="url(#sh)"/>
  <rect x="940" y="450" width="185" height="26" rx="8" fill="#D4820E"/>
  <rect x="940" y="464" width="185" height="12" fill="#D4820E"/>
  <text x="1032" y="470" text-anchor="middle" fill="white" font-size="11" font-weight="700">🔗 Relación RB-NB</text>
  <text x="950" y="492" font-size="9" fill="#666">🔗 id_caso / id_riesgo</text>
  <text x="950" y="505" font-size="9" fill="#666">🔗 id_necesidad</text>
  <text x="950" y="530" font-size="8" fill="#D4820E" font-weight="600">BRIDGE: Risks ↔ Needs ↔ Cases</text>

  <!-- Relacion Canaliz-Neced -->
  <rect x="700" y="635" width="195" height="80" rx="8" fill="white" stroke="#D4820E" stroke-width="2.5" filter="url(#sh)"/>
  <rect x="700" y="635" width="195" height="26" rx="8" fill="#D4820E"/>
  <rect x="700" y="649" width="195" height="12" fill="#D4820E"/>
  <text x="797" y="655" text-anchor="middle" fill="white" font-size="10" font-weight="700">🔗 Canaliz ↔ Necesidad</text>
  <text x="710" y="677" font-size="9" fill="#666">🔗 id_canalizacion</text>
  <text x="710" y="690" font-size="9" fill="#666">🔗 id_necesidad</text>
  <text x="710" y="710" font-size="8" fill="#D4820E" font-weight="600">BRIDGE: Referrals ↔ Needs</text>

  <!-- Cierre Caso y Evaluación -->
  <rect x="940" y="570" width="195" height="90" rx="8" fill="white" stroke="#D4820E" stroke-width="2.5" filter="url(#sh)"/>
  <rect x="940" y="570" width="195" height="26" rx="8" fill="#D4820E"/>
  <rect x="940" y="584" width="195" height="12" fill="#D4820E"/>
  <text x="1037" y="590" text-anchor="middle" fill="white" font-size="10" font-weight="700">🔗 Cierre+Evaluación</text>
  <text x="950" y="612" font-size="9" fill="#666">🔗 idCaso / idFaseNorma</text>
  <text x="950" y="625" font-size="9" fill="#666">🔗 idCriterioEva / idCumpl.</text>
  <text x="950" y="652" font-size="8" fill="#D4820E" font-weight="600">BRIDGE: Cases ↔ Eval Criteria</text>

  <!-- ===================== DIMENSION / CATALOG ===================== -->
  <!-- Catálogo Estado Ciudad -->
  <rect x="100" y="370" width="185" height="100" rx="8" fill="white" stroke="#2D8B4E" stroke-width="2" filter="url(#sh)"/>
  <rect x="100" y="370" width="185" height="26" rx="8" fill="#2D8B4E"/>
  <rect x="100" y="384" width="185" height="12" fill="#2D8B4E"/>
  <text x="192" y="390" text-anchor="middle" fill="white" font-size="11" font-weight="700">Cat. Estado Ciudad</text>
  <text x="110" y="412" font-size="9" fill="#333">🔑 id_oficina (PK)</text>
  <text x="110" y="425" font-size="9" fill="#333">Ciudad / latitud / longitud</text>
  <text x="110" y="462" font-size="8" fill="#2D8B4E" font-weight="600">CATALOG → Caso.id_oficina</text>

  <!-- Dir. Organizaciones -->
  <rect x="100" y="500" width="185" height="95" rx="8" fill="white" stroke="#2D8B4E" stroke-width="2" filter="url(#sh)"/>
  <rect x="100" y="500" width="185" height="26" rx="8" fill="#2D8B4E"/>
  <rect x="100" y="514" width="185" height="12" fill="#2D8B4E"/>
  <text x="192" y="520" text-anchor="middle" fill="white" font-size="11" font-weight="700">Dir. Organizaciones</text>
  <text x="110" y="542" font-size="9" fill="#333">🔑 id_organizacion (PK)</text>
  <text x="110" y="555" font-size="9" fill="#333">Nombre / Tipo / Estatus</text>
  <text x="110" y="587" font-size="8" fill="#2D8B4E" font-weight="600">CATALOG → Canalizaciones</text>

  <!-- Riesgo Protección Infancia -->
  <rect x="100" y="100" width="185" height="55" rx="8" fill="white" stroke="#2D8B4E" stroke-width="2" filter="url(#sh)"/>
  <rect x="100" y="100" width="185" height="26" rx="8" fill="#2D8B4E"/>
  <rect x="100" y="114" width="185" height="12" fill="#2D8B4E"/>
  <text x="192" y="120" text-anchor="middle" fill="white" font-size="10" font-weight="700">Cat. Riesgos Protec.</text>
  <text x="110" y="145" font-size="9" fill="#333">🔑 id_catriesgo (PK)</text>

  <!-- Geo + Contact (Supporting) -->
  <rect x="100" y="625" width="140" height="65" rx="8" fill="white" stroke="#555" stroke-width="1.5" filter="url(#sh)"/>
  <rect x="100" y="625" width="140" height="24" rx="8" fill="#555"/>
  <rect x="100" y="637" width="140" height="12" fill="#555"/>
  <text x="170" y="643" text-anchor="middle" fill="white" font-size="10" font-weight="700">Geoinformación</text>
  <text x="110" y="665" font-size="9" fill="#666">🔗 id_beneficiario (FK)</text>
  <text x="110" y="683" font-size="8" fill="#555" font-weight="600">N:1 → Beneficiario</text>

  <rect x="260" y="625" width="155" height="65" rx="8" fill="white" stroke="#555" stroke-width="1.5" filter="url(#sh)"/>
  <rect x="260" y="625" width="155" height="24" rx="8" fill="#555"/>
  <rect x="260" y="637" width="155" height="12" fill="#555"/>
  <text x="337" y="643" text-anchor="middle" fill="white" font-size="10" font-weight="700">Medios Contacto</text>
  <text x="270" y="665" font-size="9" fill="#666">🔗 id_beneficiario (FK)</text>
  <text x="270" y="683" font-size="8" fill="#555" font-weight="600">N:1 → Beneficiario</text>

  <!-- Docs Beneficiario & Reasignaciones (compact) -->
  <rect x="420" y="95" width="145" height="50" rx="8" fill="white" stroke="#742774" stroke-width="1.5" filter="url(#sh)"/>
  <rect x="420" y="95" width="145" height="22" rx="8" fill="#742774"/>
  <rect x="420" y="107" width="145" height="10" fill="#742774"/>
  <text x="492" y="112" text-anchor="middle" fill="white" font-size="10" font-weight="600">Docs Beneficiario</text>
  <text x="430" y="135" font-size="8.5" fill="#666">🔗 id_caso (FK)</text>

  <rect x="420" y="160" width="145" height="50" rx="8" fill="white" stroke="#742774" stroke-width="1.5" filter="url(#sh)"/>
  <rect x="420" y="160" width="145" height="22" rx="8" fill="#742774"/>
  <rect x="420" y="172" width="145" height="10" fill="#742774"/>
  <text x="492" y="177" text-anchor="middle" fill="white" font-size="10" font-weight="600">Reasignaciones</text>
  <text x="430" y="200" font-size="8.5" fill="#666">🔗 id_caso (FK)</text>

  <!-- Cierre de Caso -->
  <rect x="260" y="470" width="140" height="60" rx="8" fill="white" stroke="#742774" stroke-width="1.5" filter="url(#sh)"/>
  <rect x="260" y="470" width="140" height="22" rx="8" fill="#742774"/>
  <rect x="260" y="482" width="140" height="10" fill="#742774"/>
  <text x="330" y="487" text-anchor="middle" fill="white" font-size="10" font-weight="600">Cierre de Caso</text>
  <text x="270" y="510" font-size="8.5" fill="#666">🔗 idCaso (FK)</text>
  <text x="270" y="524" font-size="8.5" fill="#333">Motivo / Aprobación</text>

  <!-- Relationship lines (key connections) -->
  <!-- Caso → Necesidades -->
  <line x1="620" y1="310" x2="700" y2="200" stroke="#742774" stroke-width="1.2" stroke-dasharray="5,3"/>
  <!-- Caso → Riesgos -->
  <line x1="620" y1="300" x2="940" y2="180" stroke="#742774" stroke-width="1.2" stroke-dasharray="5,3"/>
  <!-- Caso → Canalizaciones -->
  <line x1="620" y1="350" x2="700" y2="340" stroke="#742774" stroke-width="1.2" stroke-dasharray="5,3"/>
  <!-- Caso → Seguimientos -->
  <line x1="620" y1="400" x2="700" y2="510" stroke="#742774" stroke-width="1.2" stroke-dasharray="5,3"/>
  <!-- Caso → Estatus Legal -->
  <line x1="520" y1="435" x2="520" y2="470" stroke="#742774" stroke-width="1.2" stroke-dasharray="5,3"/>
  <!-- Caso → Docs -->
  <line x1="490" y1="260" x2="490" y2="145" stroke="#742774" stroke-width="1" stroke-dasharray="4,3"/>
  <!-- Caso → Reasignaciones -->
  <line x1="470" y1="260" x2="470" y2="210" stroke="#742774" stroke-width="1" stroke-dasharray="4,3"/>
  <!-- Caso → Cat. Estado Ciudad -->
  <line x1="420" y1="390" x2="285" y2="410" stroke="#2D8B4E" stroke-width="1.2" stroke-dasharray="5,3"/>
  <!-- Caso → Cierre -->
  <line x1="420" y1="420" x2="400" y2="490" stroke="#742774" stroke-width="1" stroke-dasharray="4,3"/>
  <!-- Bridge RB-NB connections -->
  <line x1="940" y1="490" x2="885" y2="200" stroke="#D4820E" stroke-width="1.5" stroke-dasharray="4,2"/>
  <line x1="1032" y1="450" x2="1032" y2="230" stroke="#D4820E" stroke-width="1.5" stroke-dasharray="4,2"/>
  <!-- Bridge Canaliz-Neced -->
  <line x1="797" y1="635" x2="792" y2="590" stroke="#D4820E" stroke-width="1.5" stroke-dasharray="4,2"/>
  <line x1="797" y1="635" x2="792" y2="230" stroke="#D4820E" stroke-width="1" stroke-dasharray="4,2" opacity="0.5"/>

  <!-- Beneficiario → Geo & Contacto -->
  <line x1="197" y1="325" x2="170" y2="625" stroke="#555" stroke-width="1" stroke-dasharray="4,3"/>
  <line x1="197" y1="325" x2="337" y2="625" stroke="#555" stroke-width="1" stroke-dasharray="4,3"/>

  <!-- Label: All relations are bidirectional -->
  <rect x="420" y="720" width="360" height="26" rx="5" fill="#FFF3CD" stroke="#D4820E" stroke-width="1"/>
  <text x="600" y="738" text-anchor="middle" font-size="10" fill="#856404" font-weight="600">⚠️ 100% of relationships use Bidirectional Cross-Filtering (Both)</text>

</svg>
